<svg width="468" height="468" xmlns="http://www.w3.org/2000/svg" xmlns:xlink="http://www.w3.org/1999/xlink" xml:space="preserve" overflow="hidden"><defs><clipPath id="clip0"><rect x="0" y="0" width="468" height="468"/></clipPath></defs><g clip-path="url(#clip0)"><path d="M104.812 248.625C87.3117 248.625 73.125 262.812 73.125 280.312 73.125 297.813 87.3117 312 104.812 312 122.313 312 136.5 297.813 136.5 280.312 136.5 262.812 122.313 248.625 104.812 248.625Z" stroke="#000000" stroke-width="4.87495" stroke-linecap="butt" stroke-linejoin="miter" stroke-miterlimit="4" stroke-opacity="1" fill="#FF6565" fill-rule="nonzero" fill-opacity="1"/><path d="M451.971 249.756C449.798 248.112 447.741 246.32 445.814 244.393 438.628 236.199 427.05 223.299 414.375 217.245 380.44 201.016 326.625 196.877 326.625 196.877 299.763 180.199 271.741 165.465 242.775 152.787 239.478 151.387 235.652 152.389 233.464 155.225 230.844 158.783 231.604 163.79 235.162 166.41 235.539 166.688 235.94 166.932 236.36 167.139 248.988 174.119 261.221 181.792 273 190.125L263.04 190.125C257.771 190.125 253.5 194.396 253.5 199.665L197.16 199.665C196.014 199.667 194.871 199.558 193.747 199.339L190.125 198.632 190.125 180.897C190.234 175.998 186.816 171.726 182.013 170.757 176.705 169.852 171.668 173.422 170.763 178.73 170.671 179.273 170.625 179.824 170.625 180.375L170.625 194.854 146.25 190.125 123.069 186.259C117.245 185.28 111.287 185.429 105.519 186.698 100.508 187.814 95.394 189.282 92.6055 190.11 75.0896 195.424 31.044 210.756 18.4226 219.36 8.90175 225.854 14.4446 263.971 14.4446 263.971L9.75 269.885 9.61837 273.814C9.43371 279.345 13.1499 284.25 18.525 285.568L23.6925 286.845C31.6663 288.413 39.7548 289.327 47.8774 289.58L59.6164 290.238C57.4226 280.549 58.5171 270.406 62.7266 261.407 73.1021 238.099 100.408 227.615 123.716 237.991 140.425 245.428 151.172 262.023 151.125 280.312 151.125 285.084 150.385 289.827 148.931 294.372L323.944 294.372C316.047 270.024 329.383 243.885 353.731 235.988 378.079 228.091 404.219 241.427 412.115 265.775 414.491 273.098 415.004 280.897 413.61 288.468L458.25 288.468 458.25 262.553C458.237 257.548 455.922 252.828 451.971 249.756Z" stroke="#000000" stroke-width="4.87495" stroke-linecap="butt" stroke-linejoin="miter" stroke-miterlimit="4" stroke-opacity="1" fill="#FF6565" fill-rule="nonzero" fill-opacity="1"/><path d="M368.062 248.625C350.562 248.625 336.375 262.812 336.375 280.312 336.375 297.813 350.562 312 368.062 312 385.563 312 399.75 297.813 399.75 280.312 399.75 262.812 385.563 248.625 368.062 248.625Z" stroke="#000000" stroke-width="4.87495" stroke-linecap="butt" stroke-linejoin="miter" stroke-miterlimit="4" stroke-opacity="1" fill="#FF6565" fill-rule="nonzero" fill-opacity="1"/></g></svg>